<?xml version="1.0" encoding="UTF-8" standalone="no"?>
<!-- Created with Inkscape (http://www.inkscape.org/) -->

<svg
  width="512"
  height="512"
  viewBox="0 0 512 512"
  version="1.1"
  id="svg5"
  xml:space="preserve"
  sodipodi:docname="drawing.svg"
  inkscape:version="1.2.2 (b0a8486541, 2022-12-01)"
  xmlns:inkscape="http://www.inkscape.org/namespaces/inkscape"
  xmlns:sodipodi="http://sodipodi.sourceforge.net/DTD/sodipodi-0.dtd"
  xmlns="http://www.w3.org/2000/svg"
  xmlns:svg="http://www.w3.org/2000/svg"><sodipodi:namedview
     id="namedview6"
     pagecolor="#505050"
     bordercolor="#ffffff"
     borderopacity="1"
     inkscape:showpageshadow="0"
     inkscape:pageopacity="0"
     inkscape:pagecheckerboard="1"
     inkscape:deskcolor="#505050"
     showgrid="false"
     inkscape:zoom="0.4609375"
     inkscape:cx="257.08475"
     inkscape:cy="256"
     inkscape:window-width="2520"
     inkscape:window-height="1550"
     inkscape:window-x="0"
     inkscape:window-y="34"
     inkscape:window-maximized="1"
     inkscape:current-layer="svg5" /><defs
     id="defs2" /><g
     id="layer1"
     transform="matrix(2.8627565,0,0,2.8517419,-84.743131,-206.83916)"><path
       style="fill:#80b3ff;stroke:none;stroke-width:0.352778"
       d="m 60.580506,169.39637 c 1.584819,12.53984 -0.08075,28.08217 14.816667,32.9244 2.277533,0.74013 4.66478,1.03399 7.055555,0.92851 5.126214,-0.22613 10.173405,-2.48285 15.169444,-3.51402 0,1.80305 0.621595,5.03414 -0.362655,6.60471 -0.852311,1.36031 -3.496734,1.76071 -4.929011,2.20592 -4.47287,1.38994 -8.957734,2.77459 -13.405556,4.2425 -15.433675,5.09376 -29.985264,10.24643 -41.021564,22.9302 -2.666118,3.06423 -8.302851,7.99183 -8.301451,12.34723 0.0014,4.2866 4.945335,6.57401 8.340645,4.18641 3.807001,-2.67758 6.435443,-7.83625 9.64505,-11.22821 4.797284,-5.06942 10.939815,-9.11825 17.226209,-12.08546 9.333795,-4.40584 19.855039,-6.67068 29.633333,-9.918 3.465689,-1.15111 8.321318,-1.80269 11.273718,-3.99203 4.73392,-3.51049 0.88723,-12.13767 2.24402,-17.02012 0.5588,-2.01154 3.3595,-2.40171 3.96804,-4.62315 0.50553,-1.84503 0.10407,-4.18994 -1.3335,-5.50545 -2.73121,-2.49908 -6.73276,-0.78422 -9.80228,-0.007 -7.197723,1.8228 -20.090692,8.42962 -26.030411,1.62665 -3.938411,-4.51097 -3.270956,-14.71683 -3.590573,-20.45582 -0.181327,-3.26002 0.0381,-7.63305 -3.188758,-9.49325 -2.492375,-1.43721 -6.394309,-0.7373 -9.170811,-0.7373 l 2.469445,-10.93611 c 5.078588,1.50107 11.292416,1.29469 16.580555,1.82351 10.816166,1.08161 21.620339,2.56716 32.455553,3.43782 4.59493,0.36935 9.16446,1.0421 13.75833,1.41111 1.41852,0.1143 4.36598,-0.11748 5.43172,0.94862 1.05304,1.0541 0.58032,3.71898 0.56409,5.07894 -0.0776,6.50416 -6.73629,10.24114 -7.04038,16.93333 -0.1644,3.62197 0.20355,6.94937 1.84538,10.23056 1.18004,2.35867 3.38278,4.34904 3.72004,7.05555 0.50235,4.03296 -2.5714,6.38457 -4.49651,9.525 -1.59632,2.60385 -2.26448,5.79332 -2.42005,8.81945 -0.15875,3.08645 0.85936,6.52991 2.40206,9.17222 1.3776,2.36008 3.49321,4.50638 3.49321,7.40833 -3.6e-4,2.88502 -2.15371,4.85211 -3.69712,7.05556 -2.4331,3.47345 -4.7953,9.61566 -2.62466,13.74422 1.66158,3.16053 6.20818,3.69429 8.53722,0.95638 1.75648,-2.06516 0.85408,-4.65067 1.89018,-6.93949 2.1516,-4.75368 5.72312,-7.50464 6.40504,-13.05278 0.41874,-3.40889 -0.34326,-7.21889 -1.9805,-10.23056 -1.37971,-2.53717 -4.0259,-5.00838 -3.84034,-8.11388 0.31186,-5.22217 5.9616,-8.97679 6.8252,-14.46389 0.58702,-3.72957 0.018,-7.58402 -1.70039,-10.93611 -1.45204,-2.83246 -3.84105,-5.10717 -3.78249,-8.46667 0.0681,-3.90031 3.84211,-6.47277 5.32871,-9.87778 1.81469,-4.15537 1.36737,-8.62859 1.36737,-13.05278 l 14.11111,1.41112 c 0.0741,3.59339 2.14348,7.06719 2.02353,10.58333 -0.21519,6.31613 -3.39478,10.77912 -0.65616,17.28611 1.05268,2.5019 2.52941,4.7946 4.63126,6.53874 2.53718,2.10608 5.52097,3.4237 6.43185,6.86681 0.80327,3.03672 -0.85231,5.89104 -1.4023,8.81945 -0.74753,3.97827 -0.15522,7.97489 1.59597,11.64167 2.28247,4.78049 7.93962,6.4456 10.10462,10.93611 2.95275,6.12422 -6.13657,17.44274 1.97096,22.19325 2.62961,1.54093 6.24205,0.4071 7.39987,-2.43805 0.89923,-2.21015 -0.20285,-4.53919 -0.0236,-6.80297 0.30515,-3.84704 1.7907,-7.2143 1.7907,-11.18834 4.69406,2.33821 8.00099,7.18714 9.79699,11.99444 0.84102,2.25107 1.12536,5.03484 2.58868,6.99029 1.84362,2.4638 5.44019,2.77672 7.68456,0.69145 2.37525,-2.20663 1.71661,-4.94983 0.86395,-7.68174 -1.60126,-5.13151 -3.46322,-9.93951 -6.97794,-14.11111 -3.77508,-4.48063 -8.5023,-7.83167 -13.95624,-9.94445 -3.17218,-1.22873 -8.4,-1.76142 -10.81617,-4.24604 -3.17465,-3.26425 -1.09573,-7.16597 -0.26988,-10.85673 0.76553,-3.42124 0.62936,-6.88764 -0.46707,-10.23056 -0.89853,-2.73897 -2.50825,-5.39644 -4.67995,-7.3025 -2.23944,-1.96568 -5.24052,-3.18876 -6.42762,-6.10305 -1.74483,-4.28308 1.34056,-8.68539 1.44851,-13.05278 0.11606,-4.68983 -2.84198,-9.08685 -2.36255,-13.75833 0.38064,-3.70946 2.25989,-7.33849 3.2071,-10.93612 1.46932,-5.57953 2.15865,-11.87979 1.61043,-17.63888 -0.58773,-6.17714 -1.81116,-12.27067 -4.27249,-17.99167 -7.0739,-16.441876 -21.73076,-29.75451 -39.41198,-33.716673 -9.16623,-2.054031 -18.53918,-1.561102 -27.86944,-1.561102 -7.301442,0 -15.010694,-0.706289 -22.225,0.5063 -7.120466,1.196826 -13.581521,5.535055 -16.035866,12.546478 -1.262274,3.605953 -1.339427,8.003293 -0.181857,11.64167 0.572452,1.7992 2.725984,4.116877 2.392151,5.997217 -0.703968,3.96522 -3.409844,7.99041 -4.464438,11.99444 -2.496115,9.47738 -3.803368,19.3608 -6.183419,28.92778 -1.255148,5.04543 -4.089646,11.72457 -3.632835,16.93333 0.631543,7.20055 7.137295,8.11389 12.93682,8.11389 m 95.602744,-23.28338 c -4.39773,-0.64947 -8.83814,-2.71075 -13.05278,-4.11586 -7.86483,-2.62149 -15.76846,-5.13856 -23.63611,-7.76111 -7.02134,-2.34033 -18.96957,-4.36351 -23.558143,-10.71492 -2.212622,-3.06246 -2.076097,-7.16562 -3.561997,-10.56922 -2.494844,-5.71475 -8.241241,-10.38871 -13.802077,-12.94388 -3.764139,-1.729557 -9.515828,-3.089837 -9.362723,-8.222785 0.1524,-5.109704 4.46405,-7.601762 9.009945,-8.311762 10.327216,-1.612935 21.996045,-0.154905 32.455545,-0.154905 6.99806,0 13.61758,0.902723 20.10834,3.67859 23.31049,9.969005 32.97731,35.828992 25.4,59.115852 m -72.319441,-23.63611 -15.875,-5.29167 3.175,-8.81944 c 6.757459,1.60514 12.551128,6.93137 12.7,14.11111 m 26.811101,19.75555 v 0.35278 l -46.919434,-4.93889 2.469444,-9.87778 15.522222,4.93889 z"
       id="path955" /></g></svg>