<?xml version="1.0" encoding="UTF-8" standalone="no"?>
<!-- Created with Inkscape (http://www.inkscape.org/) -->

<svg viewBox="0 0 512 512" version="1.1" id="icon" xml:space="preserve"
  xmlns="http://www.w3.org/2000/svg" xmlns:svg="http://www.w3.org/2000/svg">
  <defs id="defs2" />
  <g id="layer1">
    <g id="g4780" transform="matrix(1.0300946,0,0,1.0300946,-10.497976,-0.0157736)">
      <path style="fill:#91b1c8"
        d="m 311.38536,373 c 0,-6.875 0.15977,-9.6875 0.35504,-6.25 0.19527,3.4375 0.19527,9.0625 0,12.5 -0.19527,3.4375 -0.35504,0.625 -0.35504,-6.25 z M 195.30987,354.5 c 0.006,-3.3 0.1923,-4.52944 0.41486,-2.73209 0.22256,1.79735 0.21797,4.49735 -0.0102,6 -0.22818,1.50265 -0.41027,0.0321 -0.40466,-3.26791 z m 66.13558,-10.24516 49.44573,-0.27345 0.39656,-4.49714 0.39657,-4.49714 -0.0922,4.75644 -0.0922,4.75645 -49.75013,0.0141 -49.75014,0.0141 49.44572,-0.27345 z M 311.47522,245 c 0,-41.525 0.12349,-58.5125 0.27441,-37.75 0.15093,20.7625 0.15093,54.7375 0,75.5 -0.15092,20.7625 -0.27441,3.775 -0.27441,-37.75 z M 251.459,296.75 c -0.26303,-0.6875 -0.35762,-26.9 -0.2102,-58.25 l 0.26805,-57 0.24157,57.71502 0.24158,57.71501 10.25,0.32409 10.25,0.32409 -10.28138,0.21089 c -7.46487,0.15313 -10.4124,-0.13153 -10.75962,-1.0391 z M 123.30987,268.5 c 0.006,-3.3 0.1923,-4.52944 0.41486,-2.73209 0.22256,1.79735 0.21797,4.49735 -0.0102,6 -0.22818,1.50265 -0.41027,0.0321 -0.40466,-3.26791 z m -4.11492,-11 c 0.0204,-1.65 0.2445,-2.20394 0.49804,-1.23097 0.25354,0.97297 0.23687,2.32297 -0.037,3 -0.27393,0.67703 -0.48137,-0.11903 -0.46099,-1.76903 z m 205,0 c 0.0204,-1.65 0.2445,-2.20394 0.49804,-1.23097 0.25354,0.97297 0.23687,2.32297 -0.0371,3 -0.27393,0.67703 -0.48137,-0.11903 -0.46099,-1.76903 z m -221.75356,-64 c 4.7e-4,-15.95 0.13854,-22.33497 0.30682,-14.18883 0.16827,8.14615 0.16789,21.19615 -8.7e-4,29 -0.16875,7.80386 -0.30643,1.13883 -0.30595,-14.81117o z M 272,182.05902 c 0,-0.51754 0.44485,-1.21592 0.98855,-1.55194 0.56686,-0.35034 0.7345,0.0511 0.39301,0.94098 C 272.71677,183.18048 272,183.49745 272,182.05902 Z m -47.73097,-13.75201 c 0.97297,-0.25354 2.32297,-0.23687 3,0.0371 0.67703,0.27393 -0.11903,0.48137 -1.76903,0.46099 -1.65,-0.0204 -2.20394,-0.2445 -1.23097,-0.49804 z M 251.37407,158.5 c 0.002,-6.05 0.16696,-8.39607 0.36601,-5.21349 0.19905,3.18258 0.1972,8.13258 -0.004,11 -0.20131,2.86742 -0.36417,0.26349 -0.36191,-5.78651 z m 45.89496,9.80701 c 0.97297,-0.25354 2.32297,-0.23687 3,0.0371 0.67703,0.27393 -0.11903,0.48137 -1.76903,0.46099 -1.65,-0.0204 -2.20394,-0.2445 -1.23097,-0.49804 z m 13.48379,-37.05649 c 0.13905,-17.46279 0.3754,-39.40052 0.52522,-48.75052 0.14982,-9.35 0.37355,4.9375 0.49718,31.75 0.12363,26.8125 -0.11272,48.75023 -0.52522,48.75052 -0.4125,2.8e-4 -0.63623,-14.28722 -0.49718,-31.75 z m -88.94032,29.06637 c 0.72187,-0.28887 1.58437,-0.25335 1.91667,0.0789 0.33229,0.33229 -0.25834,0.56864 -1.3125,0.52522 -1.16495,-0.048 -1.4019,-0.28494 -0.60417,-0.60416 z m 12,0 c 0.72187,-0.28887 1.58437,-0.25335 1.91667,0.0789 0.33229,0.33229 -0.25834,0.56864 -1.3125,0.52522 -1.16495,-0.048 -1.4019,-0.28494 -0.60417,-0.60416 z m 55,0 c 0.72187,-0.28887 1.58438,-0.25335 1.91667,0.0789 0.33229,0.33229 -0.25834,0.56864 -1.3125,0.52522 -1.16495,-0.048 -1.4019,-0.28494 -0.60417,-0.60416 z m 12,0 c 0.72187,-0.28887 1.58438,-0.25335 1.91667,0.0789 0.33229,0.33229 -0.25834,0.56864 -1.3125,0.52522 -1.16495,-0.048 -1.4019,-0.28494 -0.60417,-0.60416 z m -30.24821,-15.02376 c -0.54268,-1.4252 -0.42782,-1.54006 0.5598,-0.5598 0.68342,0.67834 0.99067,1.48524 0.68278,1.79313 -0.30789,0.30789 -0.86705,-0.24711 -1.24258,-1.23333 z M 253,143.62244 c 0,-0.20765 0.7875,-0.99515 1.75,-1.75 1.58606,-1.24387 1.62143,-1.2085 0.37756,0.37756 C 253.82119,143.91575 253,144.44548 253,143.62244 Z M 213,1 C 212.09871,0.41754043 211.97537,0.02451363 212.69098,0.01531277 213.34602,0.00689075 214.16008,0.45 214.5,1 c 0.7673,1.2415252 0.42112,1.2415252 -1.5,0 z"
        id="path4794" />
      <path style="fill:#b39d88"
        d="m 200.75181,452.7503 c 0.1385,-24.33767 0.37188,-55.0503 0.51863,-68.2503 0.14675,-13.2 0.37093,6.7125 0.49819,44.25 0.12725,37.5375 -0.10613,68.25013 -0.51863,68.2503 -0.4125,1.6e-4 -0.63668,-19.91234 -0.49819,-44.25 z M 328.32814,354.5 c 0.004,-3.85 0.18518,-5.30246 0.40166,-3.2277 0.21647,2.07477 0.21284,5.22477 -0.008,7 -0.22091,1.77524 -0.39803,0.0777 -0.39359,-3.7723 z M 200.8245,340.32582 c 0.42673,-2.09296 0.67819,-2.34442 0.96961,-0.9696 0.2164,1.02092 -0.0429,2.29254 -0.57615,2.82582 -0.62614,0.62614 -0.76551,-0.0314 -0.39346,-1.85622 z M 125.40499,278.75 123.5,276.5 l 2.25,1.90499 c 2.11444,1.79022 2.70524,2.59501 1.90499,2.59501 -0.18976,0 -1.20226,-1.0125 -2.25,-2.25 z M 396,280.62244 c 0,-0.20765 0.7875,-0.99515 1.75,-1.75 1.58606,-1.24387 1.62143,-1.2085 0.37756,0.37756 C 396.82119,280.91575 396,281.44548 396,280.62244 Z M 400.32814,268.5 c 0.004,-3.85 0.18518,-5.30246 0.40166,-3.2277 0.21647,2.07477 0.21284,5.22477 -0.008,7 -0.22091,1.77524 -0.39803,0.0777 -0.39359,-3.7723 z M 327.32007,268 c 0,-3.575 0.1815,-5.0375 0.40333,-3.25 0.22182,1.7875 0.22182,4.7125 0,6.5 -0.22183,1.7875 -0.40333,0.325 -0.40333,-3.25 z m -131.02041,0 c 0,-3.025 0.18747,-4.2625 0.41659,-2.75 0.22913,1.5125 0.22913,3.9875 0,5.5 -0.22912,1.5125 -0.41659,0.275 -0.41659,-2.75 z m 2.89529,-10.5 c 0.0204,-1.65 0.2445,-2.20394 0.49804,-1.23097 0.25354,0.97297 0.23687,2.32297 -0.0371,3 -0.27393,0.67703 -0.48137,-0.11903 -0.46099,-1.76903 z m 205,0 c 0.0204,-1.65 0.2445,-2.20394 0.49804,-1.23097 0.25354,0.97297 0.23687,2.32297 -0.0371,3 -0.27393,0.67703 -0.48137,-0.11903 -0.46099,-1.76903 z M 122,252.25 c 0,-0.4125 1.08203,-0.75 2.40451,-0.75 1.32248,0 2.19592,0.3375 1.94098,0.75 -0.25494,0.4125 -1.33697,0.75 -2.40451,0.75 C 122.87344,253 122,252.6625 122,252.25 Z m 69.65451,0 c -0.25494,-0.4125 0.57553,-0.75 1.84549,-0.75 1.26996,0 2.10043,0.3375 1.84549,0.75 -0.25494,0.4125 -1.08541,0.75 -1.84549,0.75 -0.76008,0 -1.59055,-0.3375 -1.84549,-0.75 z m 137,0 c -0.25494,-0.4125 0.57553,-0.75 1.84549,-0.75 1.26996,0 2.10043,0.3375 1.84549,0.75 -0.25494,0.4125 -1.08541,0.75 -1.84549,0.75 -0.76008,0 -1.59055,-0.3375 -1.84549,-0.75 z m 69,0 c -0.25494,-0.4125 0.57553,-0.75 1.84549,-0.75 1.26996,0 2.10043,0.3375 1.84549,0.75 -0.25494,0.4125 -1.08541,0.75 -1.84549,0.75 -0.76008,0 -1.59055,-0.3375 -1.84549,-0.75 z M 157.43772,225.5 c -5.4e-4,-14.85 0.13863,-21.0644 0.30926,-13.80979 0.17063,7.25462 0.17107,19.40462 9.7e-4,27 -0.17009,7.59539 -0.3097,1.65979 -0.31023,-13.19021 z m 208.76982,0.25 c -0.11415,-14.7125 0.12996,-26.75056 0.54246,-26.75124 0.4125,-6.8e-4 0.63472,7.98682 0.49381,17.75 -0.47407,32.84884 -0.82743,35.9182 -1.03627,9.00124 z M 156.9859,186.70389 157.47179,180.5 l 0.32132,5.39279 c 0.17672,2.96603 -0.0419,5.75778 -0.4859,6.20389 -0.44396,0.4461 -0.58856,-1.98065 -0.32131,-5.39279 z m 209.42592,4.92691 c -0.28898,-0.75306 -0.37986,-3.79056 -0.20196,-6.75 l 0.32345,-5.3808 0.48335,6.7521 c 0.4865,6.79624 0.36245,7.89941 -0.60484,5.3787 z M 176.8125,176.31689 c 0.72187,-0.28887 1.58437,-0.25335 1.91667,0.0789 0.33229,0.33229 -0.25834,0.56864 -1.3125,0.52522 -1.16495,-0.048 -1.4019,-0.28494 -0.60417,-0.60416 z m 11,0 c 0.72187,-0.28887 1.58437,-0.25335 1.91667,0.0789 0.33229,0.33229 -0.25834,0.56864 -1.3125,0.52522 -1.16495,-0.048 -1.4019,-0.28494 -0.60417,-0.60416 z m 145.9375,0.0208 c 0.6875,-0.27741 1.8125,-0.27741 2.5,0 0.6875,0.27741 0.125,0.50439 -1.25,0.50439 -1.375,0 -1.9375,-0.22698 -1.25,-0.50439 z m 11,0 c 0.6875,-0.27741 1.8125,-0.27741 2.5,0 0.6875,0.27741 0.125,0.50439 -1.25,0.50439 -1.375,0 -1.9375,-0.22698 -1.25,-0.50439 z m 28.81429,-1.63085 c 0.37553,-0.98622 0.93469,-1.54122 1.24258,-1.23333 0.30789,0.30789 6.4e-4,1.11479 -0.68278,1.79313 -0.98762,0.98026 -1.10248,0.8654 -0.5598,-0.5598 z m -199.29526,-4.39986 c 0.97297,-0.25354 2.32297,-0.23687 3,0.0371 0.67703,0.27393 -0.11903,0.48137 -1.76903,0.46099 -1.65,-0.0204 -2.20394,-0.2445 -1.23097,-0.49804 z m 171.98097,0.004 c 0.9625,-0.25152 2.5375,-0.25152 3.5,0 0.9625,0.25153 0.175,0.45733 -1.75,0.45733 -1.925,0 -2.7125,-0.2058 -1.75,-0.45733 z m -178.17105,-1.894 c 0.048,-1.16495 0.28494,-1.4019 0.60416,-0.60417 0.28887,0.72187 0.25335,1.58437 -0.0789,1.91667 -0.3323,0.33229 -0.56864,-0.25834 -0.52522,-1.3125 z M 150,164.62244 c 0,-0.20765 0.7875,-0.99515 1.75,-1.75 1.58606,-1.24387 1.62143,-1.2085 0.37756,0.37756 C 150.82119,164.91575 150,165.44548 150,164.62244 Z m 7.75,-4.28472 c 0.6875,-0.27741 1.8125,-0.27741 2.5,0 0.6875,0.27741 0.125,0.50439 -1.25,0.50439 -1.375,0 -1.9375,-0.22698 -1.25,-0.50439 z m 206,0 c 0.6875,-0.27741 1.8125,-0.27741 2.5,0 0.6875,0.27741 0.125,0.50439 -1.25,0.50439 -1.375,0 -1.9375,-0.22698 -1.25,-0.50439 z"
        id="path4792" />
      <path style="fill:#6e99b7"
        d="m 212.22343,405.75 c 0.12289,-24.8875 0.34638,-38.05 0.49663,-29.25 0.69847,40.90696 0.71197,74.50113 0.0299,74.50059 -0.4125,-3.2e-4 -0.64945,-20.36309 -0.52657,-45.25059 z m 0.0626,-66.25 c 0.008,-2.75 0.20172,-3.75631 0.43157,-2.23625 0.22986,1.52006 0.22371,3.77006 -0.0136,5 -0.23736,1.22994 -0.42542,-0.0138 -0.41792,-2.76375 z m -0.0531,-94.25 c 0.12813,-41.1125 0.35237,-62.825 0.49831,-48.25 0.69038,68.94523 0.69861,123.00048 0.0187,123.00025 -0.4125,-1.4e-4 -0.64517,-33.63775 -0.51704,-74.75025 z M 238.75,318.25092 c 12.7875,-0.15828 33.7125,-0.15828 46.5,0 12.7875,0.15828 2.325,0.28778 -23.25,0.28778 -25.575,0 -36.0375,-0.1295 -23.25,-0.28778 z m -11.34679,-3.64256 c -0.29927,-0.77988 -0.35944,-2.92331 -0.13371,-4.76316 0.37016,-3.01705 0.42612,-2.92829 0.57046,0.9048 L 228,315 h 33.9425 33.9425 l 0.41744,-4.25 0.41744,-4.25 -0.10994,4.5 -0.10994,4.5 -34.27634,0.26316 c -28.83739,0.2214 -34.36267,0.0382 -34.82045,-1.1548 z M 228,305.62244 c 0,-0.20765 0.7875,-0.99515 1.75,-1.75 1.58606,-1.24387 1.62143,-1.2085 0.37756,0.37756 C 228.82119,305.91575 228,306.44548 228,305.62244 Z M 293.87244,304.25 c -1.24387,-1.58606 -1.2085,-1.62143 0.37756,-0.37756 1.66575,1.30637 2.19548,2.12756 1.37244,2.12756 -0.20765,0 -0.99515,-0.7875 -1.75,-1.75 z M 247.25,302.25214 c 8.1125,-0.16808 21.3875,-0.16808 29.5,0 8.1125,0.16809 1.475,0.30561 -14.75,0.30561 -16.225,0 -22.8625,-0.13752 -14.75,-0.30561 z M 272.46835,240.5 c -1.4e-4,-31.9 0.12627,-45.09463 0.28092,-29.32139 0.15464,15.77323 0.15475,41.87323 2.5e-4,58 C 272.59501,285.30537 272.46849,272.4 272.46835,240.5 Z M 274,179.68709 c 0,-0.1721 1.4625,-1.6346 3.25,-3.25 l 3.25,-2.93709 -2.93709,3.25 C 274.82513,179.77946 274,180.45965 274,179.68709 Z M 246.40499,176.75 244.5,174.5 l 2.25,1.90499 c 2.11444,1.79022 2.70524,2.59501 1.90499,2.59501 -0.18976,0 -1.20226,-1.0125 -2.25,-2.25 z m 25.76311,-19.5 c 0.17076,-10.91972 0.56426,-9.61792 1.05863,3.50225 0.1503,3.98874 -0.0642,7.25124 -0.47673,7.25 -0.4125,-0.001 -0.67435,-4.83975 -0.5819,-10.75225 z M 212.4768,81.5 c -7e-5,-44.55 0.12269,-62.921066 0.27281,-40.824592 0.15012,22.096474 0.15018,58.546474 1.4e-4,81.000002 C 212.5997,144.12893 212.47687,126.05 212.4768,81.5 Z"
        id="path4790" />
      <path style="fill:#a38970"
        d="m 322.47249,432 c 0,-37.125 0.12468,-52.3125 0.27706,-33.75 0.15238,18.5625 0.15238,48.9375 0,67.5 -0.15238,18.5625 -0.27706,3.375 -0.27706,-33.75 z m 97.95502,-20 c 0,-12.375 0.14355,-17.4375 0.319,-11.25 0.17544,6.1875 0.17544,16.3125 0,22.5 -0.17545,6.1875 -0.319,1.125 -0.319,-11.25 z M 201.45522,299 c 0,-21.725 0.13209,-30.6125 0.29353,-19.75 0.16144,10.8625 0.16144,28.6375 0,39.5 -0.16144,10.8625 -0.29353,1.975 -0.29353,-19.75 z M 146.25,282.25243 c 7.5625,-0.16988 19.9375,-0.16988 27.5,0 7.5625,0.16989 1.375,0.30888 -13.75,0.30888 -15.125,0 -21.3125,-0.13899 -13.75,-0.30888 z m 204,0 c 7.5625,-0.16988 19.9375,-0.16988 27.5,0 7.5625,0.16989 1.375,0.30888 -13.75,0.30888 -15.125,0 -21.3125,-0.13899 -13.75,-0.30888 z M 201.45667,214.5 c -2.6e-4,-22.55 0.13111,-31.91763 0.29192,-20.81697 0.16082,11.10067 0.16103,29.55067 4.7e-4,41 -0.16055,11.44934 -0.29213,2.36697 -0.29239,-20.18303 z m 160.97688,13 c -6.1e-4,-13.75 0.14023,-19.5137 0.31298,-12.80822 0.17275,6.70549 0.17325,17.95549 10e-4,25 C 362.5755,246.7363 362.43416,241.25 362.43355,227.5 Z M 362.32007,186 c 0,-3.575 0.1815,-5.0375 0.40333,-3.25 0.22182,1.7875 0.22182,4.7125 0,6.5 -0.22183,1.7875 -0.40333,0.325 -0.40333,-3.25 z M 201.44956,132 c 0,-18.975 0.13447,-26.7375 0.29883,-17.25 0.16436,9.4875 0.16436,25.0125 0,34.5 -0.16436,9.4875 -0.29883,1.725 -0.29883,-17.25 z"
        id="path4788" />
      <path style="fill:#4179a0"
        d="M 213,405.5 V 361 h 49 49 v 11.94748 11.94747 l -48.56688,32.55253 C 235.72134,435.35136 213.67134,450 213.43312,450 213.19491,450 213,429.975 213,405.5 Z m 0,-66 V 335 h 49 49 v 4.5 4.5 h -49 -49 z m 0,-95.11408 v -74.11407 l 4.63957,-0.63593 c 13.08505,-1.7935 21.6826,0.40984 28.61043,7.33215 l 4.75,4.74622 V 239.85714 298 h 11 11 v -58.36316 -58.36316 l 4.87655,-4.56144 c 7.18131,-6.71727 15.68691,-8.83034 28.48388,-7.07632 L 311,170.27185 V 244.38592 318.5 h -49 -49 z m 83.79912,67.03553 c 0.21221,-2.89355 -0.27057,-4.7821 -1.66165,-6.5 L 293.17671,302.5 H 262 230.82329 l -1.91164,2.36078 c -1.86198,2.29945 -2.65649,9.06105 -1.23207,10.48547 0.37377,0.37377 16.01127,0.56127 34.75,0.41667 L 296.5,315.5 Z M 249.67923,167.23098 c -0.45142,-0.69795 -3.15142,-2.48587 -6,-3.97313 -4.55283,-2.37707 -6.32821,-2.70737 -14.67923,-2.73099 -5.225,-0.0148 -10.9625,0.29939 -12.75,0.69814 L 213,161.95 V 81.456098 0.96219534 L 255.75,29.641702 c 23.5125,15.773729 45.5625,30.654972 49,33.069429 l 6.25,4.389921 v 47.566108 47.5661 l -2.25,-0.7082 c -1.2375,-0.38951 -6.13418,-0.94449 -10.88152,-1.23329 -9.4514,-0.57495 -14.01286,0.40392 -20.09704,4.31277 -2.05071,1.3175 -3.92339,2.39546 -4.16152,2.39546 -0.23813,0 -0.58528,-4.98786 -0.77144,-11.08414 L 272.5,144.83172 l -3.26578,-2.91586 c -4.51553,-4.03171 -9.95141,-4.03237 -14.46844,-0.002 L 251.5,144.82818 251,156.66409 c -0.28378,6.7175 -0.85494,11.28713 -1.32077,10.56689 z"
        id="path4786" />
      <path style="fill:#8e6e4d"
        d="m 103.48185,326.5 c 5e-5,-57.75 0.12065,-81.22807 0.268,-52.1735 0.14735,29.05458 0.14731,76.30458 -9e-5,105 -0.14739,28.69543 -0.26795,4.9235 -0.26791,-52.8265 z M 420.48034,294 c 0,-53.075 0.12124,-74.7875 0.26943,-48.25 0.14819,26.5375 0.14819,69.9625 0,96.5 -0.14819,26.5375 -0.26943,4.825 -0.26943,-48.25 z m -98.32245,69 c 0,-1.375 0.22698,-1.9375 0.50439,-1.25 0.27741,0.6875 0.27741,1.8125 0,2.5 -0.27741,0.6875 -0.50439,0.125 -0.50439,-1.25 z m -127.84802,-8.5 c 0.006,-3.3 0.1923,-4.52944 0.41486,-2.73209 0.22256,1.79735 0.21797,4.49735 -0.0102,6 -0.22818,1.50265 -0.41027,0.0321 -0.40466,-3.26791 z m 131.56257,-10.25 c -1.24387,-1.58606 -1.2085,-1.62143 0.37756,-0.37756 1.66575,1.30637 2.19548,2.12756 1.37244,2.12756 -0.20765,0 -0.99515,-0.7875 -1.75,-1.75 z m -3.63766,-86 c -0.12913,-46.3375 0.10272,-84.25009 0.51522,-84.25021 0.67954,-1.8e-4 0.67229,60.13024 -0.0167,138.50021 -0.14506,16.5 -0.36939,-7.9125 -0.49852,-54.25 z M 122.30987,268.5 c 0.006,-3.3 0.1923,-4.52944 0.41486,-2.73209 0.22256,1.79735 0.21797,4.49735 -0.0102,6 -0.22818,1.50265 -0.41027,0.0321 -0.40466,-3.26791 z m -4.11492,-11 c 0.0204,-1.65 0.2445,-2.20394 0.49804,-1.23097 0.25354,0.97297 0.23687,2.32297 -0.037,3 -0.27393,0.67703 -0.48137,-0.11903 -0.46099,-1.76903 z m 83,0 c 0.0204,-1.65 0.2445,-2.20394 0.49804,-1.23097 0.25354,0.97297 0.23687,2.32297 -0.0371,3 -0.27393,0.67703 -0.48137,-0.11903 -0.46099,-1.76903 z m -39.75925,-31 c 5.7e-4,-14.3 0.14102,-20.01094 0.31211,-12.69097 0.17108,7.31996 0.17062,19.01996 -10e-4,26 -0.1717,6.98003 -0.31168,0.99097 -0.31111,-13.30903 z M 161.32007,186 c 0,-3.575 0.1815,-5.0375 0.40333,-3.25 0.22182,1.7875 0.22182,4.7125 0,6.5 -0.22183,1.7875 -0.40333,0.325 -0.40333,-3.25 z m 195.55237,-8.75 c -1.24387,-1.58606 -1.2085,-1.62143 0.37756,-0.37756 1.66575,1.30637 2.19548,2.12756 1.37244,2.12756 -0.20765,0 -0.99515,-0.7875 -1.75,-1.75 z M 322.44756,133.5 c -3.8e-4,-18.15 0.13477,-25.71608 0.30034,-16.81351 0.16557,8.90257 0.16588,23.75257 6.9e-4,33 -0.16519,9.24743 -0.30065,1.96351 -0.30103,-16.18649 z m -156.57512,29.75 c -1.24387,-1.58606 -1.2085,-1.62143 0.37756,-0.37756 0.9625,0.75485 1.75,1.54235 1.75,1.75 0,0.82304 -0.82119,0.29331 -2.12756,-1.37244 z"
        id="path4784" />
      <path style="fill:#79532d"
        d="M 323,429.96942 V 361 h 3 3 v -7.09879 c 0,-6.59812 -0.21159,-7.29644 -3,-9.90121 l -3,-2.80242 v -83.21542 -83.21542 l 2.25,0.78218 c 1.2375,0.43021 8.55,0.86786 16.25,0.97256 11.70146,0.15911 14.53255,0.50134 17.24368,2.08444 3.06694,1.79088 3.24402,2.21052 3.25,7.7017 0.006,5.69923 -0.31332,6.36171 -17.12251,35.5 -9.42085,16.33081 -17.32241,30.02988 -17.55901,30.44238 -0.23661,0.4125 0.83386,0.73456 2.37882,0.71568 2.61431,-0.0319 3.8141,-1.79006 17.30902,-25.36383 l 14.5,-25.32951 0.26717,24.86383 L 362.03434,252 h 2.46595 2.46595 l 0.26688,-25.69347 0.26688,-25.69346 15,26.17842 c 12.59601,21.9829 15.3606,26.18083 17.25,26.19346 1.2375,0.008 2.25,-0.40597 2.25,-0.92056 C 402,251.04735 369.37437,194.10596 367.90011,192.55 367.40505,192.0275 367,189.20088 367,186.26862 c 0,-4.17556 0.37939,-5.46529 1.75,-5.94902 5.37675,-1.89761 8.3566,-8.27882 6.34127,-13.57955 -1.18825,-3.12531 -6.48214,-6.73077 -9.89093,-6.73631 -3.9521,-0.006 -8.27792,2.93768 -9.85211,6.70525 l -1.49421,3.57615 -9.17701,-0.58853 c -7.59796,-0.48726 -20.20872,-2.89499 -21.39945,-4.08571 -0.16834,-0.16834 -0.18715,-14.54416 -0.0418,-31.94627 L 323.5,102.02444 372,134.63566 c 26.675,17.93617 48.51383,32.66817 48.53074,32.73778 0.0169,0.0696 -0.2081,60.13898 -0.5,133.48749 L 419.5,434.22186 371.25,466.58035 323,498.93884 Z M 397.93596,279.56291 C 400.8076,276.81025 401,276.16661 401,269.31291 V 262 h -37 -37 v 6.77749 c 0,4.64332 0.51274,7.50953 1.6283,9.10222 3.3704,4.81192 5.70626,5.11828 37.05766,4.86038 L 394.87193,282.5 Z M 405,257.5 V 255 H 364.5 324 v 2.5 2.5 H 364.5 405 Z M 152.27834,463.68227 104.05668,431.5 l -0.0283,-90.08592 c -0.0156,-49.54726 -0.29873,-109.62226 -0.62921,-133.5 L 102.79826,164.5 l 46.26299,-31 c 25.44464,-17.05 47.54003,-31.83169 49.10087,-32.8482 L 201,98.803597 v 33.476633 33.47662 l -6.75,1.73592 c -3.7125,0.95475 -10.8447,1.96723 -15.84932,2.24995 l -9.09933,0.51403 -0.62556,-3.1278 c -1.48585,-7.42927 -12.46588,-9.28511 -18.03843,-3.04885 -2.42152,2.70993 -2.7813,3.81009 -2.33475,7.13936 0.57524,4.2887 2.92688,7.52417 6.44739,8.87055 1.9439,0.74342 2.25,1.5849 2.25,6.18524 0,2.92861 -0.43068,5.75543 -0.95708,6.28183 -0.52639,0.52639 -8.61386,14.22889 -17.97216,30.45 -16.49799,28.59663 -16.93717,29.5028 -14.4515,29.81816 1.40997,0.17889 2.67209,0.17889 2.8047,0 0.13262,-0.17888 7.06648,-12.23874 15.40858,-26.79969 L 157,199.5511 V 225.77555 252 h 2.5 2.5 v -25.19991 -25.19991 l 10.60391,18.44991 c 5.83214,10.14745 12.46964,21.70763 14.75,25.68929 3.2062,5.59826 4.65615,7.24179 6.39609,7.25 1.2375,0.006 2.25,-0.40214 2.25,-0.90662 0,-0.50448 -7.65,-14.16211 -17,-30.3503 -16.83145,-29.14125 -17,-29.49246 -17,-35.42225 0,-5.41804 0.23841,-6.0978 2.5,-7.12826 1.375,-0.62649 2.5,-1.51531 2.5,-1.97517 0,-0.45985 5.9625,-0.80699 13.25,-0.77143 7.2875,0.0356 14.9375,-0.29324 17,-0.73066 l 3.75,-0.79532 v 83.51013 c 0,82.34187 -0.0278,83.52503 -1.98965,84.57496 -3.26218,1.74587 -5.14306,6.55612 -4.81094,12.30371 0.29272,5.06571 0.38564,5.21003 3.55059,5.51519 l 3.25,0.31336 v 67.43664 c 0,37.09015 -0.1125,67.40616 -0.25,67.36891 -0.1375,-0.0373 -21.94975,-14.54975 -48.47166,-32.25 z M 190.40143,281.60563 C 195.51774,279.4679 197,276.58354 197,268.76532 v -6.78966 L 159.75,262.23783 122.5,262.5 v 6.68481 c 0,6.00743 0.29262,6.9902 2.88775,9.6985 1.58826,1.65753 3.83826,3.20058 5,3.42901 1.16174,0.22842 14.3892,0.4766 29.39437,0.5515 21.315,0.10639 28.01202,-0.16879 30.61931,-1.25819 z M 200,257.5 V 255 h -41 -41 v 2.5 2.5 h 41 41 z"
        id="path4782" />
    </g>
  </g>

  <style>
    @media (prefers-color-scheme: light) {
      :root {
        filter: none
      }
    }

    @media (prefers-color-scheme: dark) {
      :root {
        filter: invert(100%)
      }
    }
  </style>
</svg>